<svg width="569" height="413" viewBox="0 0 569 413" fill="none" xmlns="http://www.w3.org/2000/svg">
<g clip-path="url(#clip0_177_1079)">
<path opacity="0.8" d="M516.923 367.825C568.406 318.581 580.705 218.04 533.019 148.135C493.274 89.8705 420.065 29.936 327.815 12.4651C235.562 -5.00568 154.742 -4.98549 119.791 18.0948C91.1879 36.9827 104.484 63.288 113.454 85.6414C125.429 115.482 127.193 139.175 77.9325 182.526C21.6981 232.014 6.47538 250.59 3.65798 298.441C1.36449 337.358 33.7921 389.708 76.3407 397.209C135.576 407.651 157.562 380.068 215.514 361.474C262.003 346.556 294.248 353.532 336.397 382.12C378.546 410.709 441.372 440.091 516.923 367.825Z" fill="#8FB8E8"/>
<g opacity="0.8">
<path d="M485.206 108.757H475.334C471.522 108.757 468.421 105.649 468.421 101.829V91.9374C468.421 88.1176 471.522 85.01 475.334 85.01H485.206C489.018 85.01 492.12 88.1176 492.12 91.9374V101.829C492.12 105.649 489.018 108.757 485.206 108.757ZM475.334 87.7376C473.023 87.7376 471.141 89.6228 471.141 91.9392V101.831C471.141 104.148 473.023 106.033 475.334 106.033H485.206C487.518 106.033 489.399 104.148 489.399 101.831V91.9392C489.399 89.6228 487.518 87.7376 485.206 87.7376H475.334Z" fill="#75A1DE"/>
</g>
<g opacity="0.8">
<path d="M438.754 108.757H428.882C425.07 108.757 421.969 105.649 421.969 101.829V91.9374C421.969 88.1176 425.07 85.01 428.882 85.01H438.754C442.566 85.01 445.668 88.1176 445.668 91.9374V101.829C445.668 105.649 442.566 108.757 438.754 108.757ZM428.882 87.7376C426.57 87.7376 424.689 89.6228 424.689 91.9392V101.831C424.689 104.148 426.57 106.033 428.882 106.033H438.754C441.066 106.033 442.947 104.148 442.947 101.831V91.9392C442.947 89.6228 441.066 87.7376 438.754 87.7376H428.882Z" fill="#75A1DE"/>
</g>
<path d="M434.434 102.999C434.416 102.999 434.396 102.999 434.378 102.997C434.035 102.98 433.718 102.813 433.509 102.54L426.415 93.2665C426.023 92.7543 426.12 92.022 426.631 91.6291C427.142 91.2363 427.873 91.3336 428.265 91.8457L434.522 100.025L450.859 82.4862C451.299 82.0145 452.037 81.9888 452.508 82.4293C452.978 82.8699 453.004 83.6096 452.564 84.0813L435.288 102.63C435.066 102.865 434.757 102.999 434.434 102.999Z" fill="#F37168"/>
<path d="M517.839 364.22C477.425 362.241 339.938 365.595 298.124 366.902C256.31 368.209 207.775 365.176 182.563 360.716C157.351 356.256 11.6179 361.096 18.2309 373.086C24.8439 385.076 83.1629 378.449 149.295 383.27C215.429 388.09 364.165 382.668 397.713 383.27C431.264 383.872 462.028 382.065 505.263 379.655C548.501 377.247 541.265 365.367 517.839 364.22Z" fill="#CCE2FF"/>
<path d="M157.328 107.608H72.8447V246.362H157.328V107.608Z" fill="#99BBEB"/>
<path d="M154.551 110.435H77.2686V241.072H154.551V110.435Z" fill="white"/>
<path d="M100.385 162.822C103.294 156.552 108.216 154.543 116.302 154.543C125.928 154.543 130.926 158.038 132.343 163.125C115.104 163.36 100.385 162.822 100.385 162.822Z" fill="#9BD6E8"/>
<path d="M112.939 124.046C108.865 125.191 109.042 127.485 107.685 129.615C106.328 131.744 103.376 133.165 103.021 134.584C102.667 136.002 103.93 138.961 102.431 140.617C100.933 142.273 100.423 143.101 101.015 144.758C101.605 146.414 102.904 149.017 103.023 149.373C103.14 149.727 104.794 152.212 106.8 152.566C108.808 152.921 112.585 153.514 114.474 154.341C116.362 155.169 122.437 153.281 125.808 153.4C129.178 153.517 131.475 151.028 131.239 149.373C131.003 147.717 133.725 144.404 133.717 141.564C133.71 138.515 130.175 136.241 129.231 134.229C128.286 132.218 129.348 128.669 125.808 126.566C123.569 125.237 122.03 125.356 120.259 124.763C118.489 124.174 115.536 123.315 112.939 124.046Z" fill="#3A384D"/>
<path d="M117.897 159.547C116.976 160.911 116.3 160.966 115.3 159.547C114.505 158.418 112.938 155.854 112.938 154.553V141.564C112.938 140.263 114.001 139.198 115.3 139.198H117.897C119.196 139.198 120.259 140.263 120.259 141.564V154.553C120.259 155.854 118.725 158.325 117.897 159.547Z" fill="#F09959"/>
<path d="M117.897 139.2H115.3C114.001 139.2 112.938 140.265 112.938 141.566V153.154C115.855 154.084 118.516 152.234 120.259 150.151V141.566C120.259 140.265 119.196 139.2 117.897 139.2Z" fill="#E38540"/>
<path d="M116.598 150.05C120.935 150.05 124.45 145.251 124.45 139.33C124.45 133.41 120.935 128.611 116.598 128.611C112.262 128.611 108.747 133.41 108.747 139.33C108.747 145.251 112.262 150.05 116.598 150.05Z" fill="#F09959"/>
<path d="M120.258 130.799C115.3 139.198 107.979 138.37 107.979 138.37C107.979 138.37 108.157 127.249 113.972 126.658C119.786 126.067 123.21 128.405 124.391 132.263C125.571 136.122 124.391 138.666 124.391 138.666C124.391 138.666 122.502 137.186 121.557 134.82C120.614 132.456 120.258 130.799 120.258 130.799Z" fill="#3A384D"/>
<path d="M109.552 139.165C110.286 140.714 110.046 142.368 109.015 142.858C107.983 143.348 106.553 142.491 105.818 140.942C105.084 139.393 105.324 137.739 106.355 137.249C107.386 136.759 108.817 137.616 109.552 139.165Z" fill="#F09959"/>
<path d="M123.292 139.165C122.558 140.714 122.798 142.368 123.829 142.858C124.86 143.348 126.291 142.491 127.026 140.942C127.76 139.393 127.52 137.739 126.489 137.249C125.458 136.759 124.027 137.616 123.292 139.165Z" fill="#F09959"/>
<path d="M119.552 145.145C119.552 145.145 118.231 146.862 116.601 146.862C114.97 146.862 113.649 145.145 113.649 145.145H119.552Z" fill="white"/>
<path d="M125.945 179.827H106.119C104.851 179.827 103.812 178.788 103.812 177.516C103.812 176.245 104.849 175.205 106.119 175.205H125.947C127.215 175.205 128.253 176.244 128.253 177.516C128.251 178.788 127.215 179.827 125.945 179.827Z" fill="#99BBEB"/>
<path d="M129.576 186.924H102.488C101.22 186.924 100.182 185.886 100.182 184.613C100.182 183.343 101.218 182.302 102.488 182.302H129.576C130.843 182.302 131.882 183.341 131.882 184.613C131.882 185.886 130.843 186.924 129.576 186.924Z" fill="#99BBEB"/>
<path d="M148.979 212.452H83.0848C82.3484 212.452 81.7476 211.848 81.7476 211.112C81.7476 210.376 82.3502 209.772 83.0848 209.772H148.977C149.713 209.772 150.314 210.376 150.314 211.112C150.314 211.848 149.713 212.452 148.979 212.452Z" fill="#99BBEB"/>
<path d="M148.979 218.681H83.0848C82.3484 218.681 81.7476 218.077 81.7476 217.341C81.7476 216.605 82.3502 216.001 83.0848 216.001H148.977C149.713 216.001 150.314 216.605 150.314 217.341C150.314 218.077 149.713 218.681 148.979 218.681Z" fill="#99BBEB"/>
<path d="M148.979 224.911H83.0848C82.3484 224.911 81.7476 224.307 81.7476 223.571C81.7476 222.834 82.3502 222.231 83.0848 222.231H148.977C149.713 222.231 150.314 222.835 150.314 223.571C150.316 224.309 149.713 224.911 148.979 224.911Z" fill="#99BBEB"/>
<path d="M139.762 164.362H92.3009C90.9837 164.362 89.9121 163.288 89.9121 161.968V118.139C89.9121 116.819 90.9837 115.745 92.3009 115.745H139.762C141.08 115.745 142.151 116.819 142.151 118.139V161.968C142.151 163.288 141.08 164.362 139.762 164.362ZM92.3009 117.693C92.059 117.693 91.8557 117.897 91.8557 118.139V161.968C91.8557 162.211 92.059 162.414 92.3009 162.414H139.762C140.004 162.414 140.208 162.211 140.208 161.968V118.139C140.208 117.897 140.004 117.693 139.762 117.693H92.3009Z" fill="#99BBEB"/>
<path d="M99.15 192.951L100.524 195.741L103.596 196.189L101.374 198.36L101.898 201.427L99.15 199.979L96.4022 201.427L96.9261 198.36L94.7041 196.189L97.7761 195.741L99.15 192.951Z" fill="#99BBEB"/>
<path d="M110.405 192.951L111.779 195.741L114.851 196.189L112.627 198.36L113.153 201.427L110.405 199.979L107.657 201.427L108.181 198.36L105.957 196.189L109.031 195.741L110.405 192.951Z" fill="#99BBEB"/>
<path d="M121.658 192.951L123.034 195.741L126.106 196.189L123.882 198.36L124.407 201.427L121.658 199.979L118.91 201.427L119.436 198.36L117.212 196.189L120.284 195.741L121.658 192.951Z" fill="#99BBEB"/>
<path d="M132.913 192.951L134.287 195.741L137.361 196.189L135.137 198.36L135.661 201.427L132.913 199.979L130.165 201.427L130.691 198.36L128.467 196.189L131.539 195.741L132.913 192.951Z" fill="#99BBEB"/>
<path d="M345.674 107.608H261.191V246.362H345.674V107.608Z" fill="#99BBEB"/>
<path d="M342.897 110.435H265.615V241.072H342.897V110.435Z" fill="white"/>
<path d="M292.402 138.624C292.402 144.839 296.137 154.867 304.946 154.544C313.756 154.222 315.705 144.663 316.046 141.966C316.386 139.27 292.402 138.624 292.402 138.624Z" fill="#7A4E34"/>
<path d="M288.731 162.822C291.64 156.552 296.562 154.543 304.646 154.543C314.273 154.543 319.27 158.038 320.688 163.125C303.45 163.36 288.731 162.822 288.731 162.822Z" fill="#D54A41"/>
<path d="M306.244 159.547C305.322 160.911 304.646 160.966 303.646 159.547C302.851 158.418 301.285 155.854 301.285 154.553V141.564C301.285 140.263 302.347 139.198 303.646 139.198H306.244C307.542 139.198 308.605 140.263 308.605 141.564V154.553C308.605 155.854 307.072 158.325 306.244 159.547Z" fill="#F09959"/>
<path d="M306.244 139.2H303.646C302.347 139.2 301.285 140.265 301.285 141.566V153.154C304.201 154.085 306.863 152.234 308.605 150.151V141.566C308.605 140.265 307.542 139.2 306.244 139.2Z" fill="#E38540"/>
<path d="M312.798 139.33C312.798 145.25 309.283 150.05 304.947 150.05C300.611 150.05 297.095 145.25 297.095 139.33C297.095 133.411 300.611 128.611 304.947 128.611C309.283 128.611 312.798 133.411 312.798 139.33Z" fill="#F09959"/>
<path d="M309.261 131.182C308.328 134.479 306.284 134.441 303.432 135.523C300.581 136.606 299.218 137.695 298.286 139.804C297.097 142.493 298.826 150.335 298.826 150.335C298.826 150.335 291.607 144.922 292.442 136.41C293.278 127.897 298.286 124.6 303.001 124.6C307.714 124.6 309.508 127.478 309.508 127.478C309.508 127.478 312.019 127.489 314.393 130.307C317.585 134.095 316.603 143.297 314.393 146.594C312.184 149.89 310.71 150.924 310.759 150.777C310.808 150.63 312.822 143.058 311.741 138.378C310.662 133.697 309.261 131.182 309.261 131.182Z" fill="#7A4E34"/>
<path d="M307.898 145.146C307.898 145.146 306.577 146.862 304.947 146.862C303.316 146.862 301.996 145.146 301.996 145.146H307.898Z" fill="white"/>
<path d="M314.293 179.827H294.465C293.197 179.827 292.159 178.788 292.159 177.516C292.159 176.245 293.196 175.205 294.465 175.205H314.293C315.561 175.205 316.599 176.244 316.599 177.516C316.598 178.788 315.561 179.827 314.293 179.827Z" fill="#99BBEB"/>
<path d="M317.922 186.924H290.832C289.565 186.924 288.528 185.886 288.528 184.613C288.528 183.343 289.565 182.302 290.832 182.302H317.922C319.189 182.302 320.226 183.341 320.226 184.613C320.228 185.886 319.191 186.924 317.922 186.924Z" fill="#99BBEB"/>
<path d="M337.325 212.452H271.433C270.697 212.452 270.096 211.848 270.096 211.112C270.096 210.376 270.698 209.772 271.433 209.772H337.325C338.061 209.772 338.662 210.376 338.662 211.112C338.662 211.848 338.06 212.452 337.325 212.452Z" fill="#99BBEB"/>
<path d="M337.325 218.681H271.433C270.697 218.681 270.096 218.077 270.096 217.341C270.096 216.605 270.698 216.001 271.433 216.001H337.325C338.061 216.001 338.662 216.605 338.662 217.341C338.662 218.077 338.06 218.681 337.325 218.681Z" fill="#99BBEB"/>
<path d="M337.325 224.911H271.433C270.697 224.911 270.096 224.307 270.096 223.571C270.096 222.834 270.698 222.231 271.433 222.231H337.325C338.061 222.231 338.662 222.835 338.662 223.571C338.662 224.309 338.06 224.911 337.325 224.911Z" fill="#99BBEB"/>
<path d="M328.109 164.362H280.649C279.332 164.362 278.26 163.288 278.26 161.968V118.139C278.26 116.819 279.332 115.745 280.649 115.745H328.109C329.426 115.745 330.498 116.819 330.498 118.139V161.968C330.498 163.288 329.426 164.362 328.109 164.362ZM280.647 117.693C280.405 117.693 280.202 117.897 280.202 118.139V161.968C280.202 162.211 280.405 162.414 280.647 162.414H328.107C328.349 162.414 328.552 162.211 328.552 161.968V118.139C328.552 117.897 328.349 117.693 328.107 117.693H280.647Z" fill="#99BBEB"/>
<path d="M287.497 192.951L288.871 195.741L291.943 196.189L289.721 198.36L290.244 201.427L287.497 199.979L284.749 201.427L285.273 198.36L283.051 196.189L286.123 195.741L287.497 192.951Z" fill="#99BBEB"/>
<path d="M298.751 192.951L300.125 195.741L303.197 196.189L300.973 198.36L301.499 201.427L298.751 199.979L296.004 201.427L296.528 198.36L294.304 196.189L297.378 195.741L298.751 192.951Z" fill="#99BBEB"/>
<path d="M310.006 192.951L311.38 195.741L314.452 196.189L312.228 198.36L312.754 201.427L310.006 199.979L307.257 201.427L307.782 198.36L305.559 196.189L308.631 195.741L310.006 192.951Z" fill="#99BBEB"/>
<path d="M321.26 192.951L322.634 195.741L325.708 196.189L323.484 198.36L324.008 201.427L321.26 199.979L318.512 201.427L319.038 198.36L316.814 196.189L319.886 195.741L321.26 192.951Z" fill="#99BBEB"/>
<path opacity="0.2" d="M218.105 250.849H84.7764L94.2068 113.999H222.911L218.105 250.849Z" fill="#99BBEB"/>
<path d="M266.756 82.2263H151.366V271.742H266.756V82.2263Z" fill="#99BBEB"/>
<path d="M262.965 86.0884H157.409V264.519H262.965V86.0884Z" fill="white"/>
<path d="M200.349 123.567C200.276 123.345 198.428 112.717 198.206 108.583C197.984 104.45 204.835 103.858 204.835 103.858C204.835 103.858 210.434 100.832 214.486 102.383C218.538 103.932 221.295 106.54 223.136 109.787C224.977 113.034 221.516 123.156 221.516 123.156L200.349 123.567Z" fill="#2E2D3D"/>
<path d="M187.649 157.716C187.623 157.541 188.122 153.358 188.14 153.189C189.072 144.38 199.908 141.904 210.719 141.904C223.423 141.904 232.04 144.233 233.416 153.385C233.456 153.653 234.189 157.848 234.152 158.129C210.608 158.453 187.649 157.716 187.649 157.716Z" fill="#D5E1E8"/>
<path d="M212.901 148.74C211.643 150.601 210.72 150.678 209.353 148.74C208.267 147.198 204.64 143.681 204.64 141.904L206.129 124.18C206.129 122.403 207.58 120.948 209.355 120.948H212.903C214.676 120.948 216.129 122.401 216.129 124.18L216.822 141.904C216.818 143.681 214.03 147.071 212.901 148.74Z" fill="#F09959"/>
<path d="M212.901 120.948H209.353C207.58 120.948 206.127 122.401 206.127 124.18L204.835 139.903C208.82 141.173 214.198 138.591 216.578 135.746L216.127 124.18C216.125 122.401 214.674 120.948 212.901 120.948Z" fill="#E38540"/>
<path d="M198.952 143.196L204.64 153.731C204.64 153.731 207.684 151.221 207.979 151.713C208.274 152.205 207.439 158.415 207.439 158.415C207.439 158.415 214.215 158.507 214.51 158.211C214.805 157.916 213.134 151.466 213.823 151.466C214.51 151.466 216.578 153.336 216.578 153.336L222.929 143.196L221.533 142.855L211.128 148.464L199.999 142.978L198.952 143.196Z" fill="#BDCCD4"/>
<path d="M205.457 148.049L209.681 150.891L208.371 158.428L214.068 158.11L212.645 151.253L216.145 148.049L214.5 146.497H207.102L205.457 148.049Z" fill="#D54A41"/>
<path d="M204.934 138.033L199.71 143.015C199.71 143.015 205.033 152.499 205.328 152.499C205.623 152.499 209.846 147.269 209.846 147.269L212.549 147.222L216.82 151.712L221.782 142.916L216.719 137.541C216.719 137.541 212.397 145.906 211.612 146.102C210.826 146.298 210.82 146.398 210.185 145.906C209.551 145.416 204.934 138.033 204.934 138.033Z" fill="#D5E1E8"/>
<path d="M221.852 121.127C221.852 129.213 217.05 135.77 211.128 135.77C205.206 135.77 200.404 129.215 200.404 121.127C200.404 113.04 205.206 106.485 211.128 106.485C217.05 106.485 221.852 113.04 221.852 121.127Z" fill="#F09959"/>
<path d="M201.501 120.902C202.505 123.018 202.175 125.276 200.768 125.946C199.36 126.616 197.407 125.443 196.403 123.328C195.401 121.212 195.729 118.954 197.136 118.284C198.543 117.614 200.497 118.785 201.501 120.902Z" fill="#F09959"/>
<path d="M220.269 120.902C219.265 123.018 219.595 125.276 221.001 125.946C222.41 126.616 224.363 125.443 225.367 123.328C226.371 121.212 226.041 118.954 224.634 118.284C223.227 117.612 221.273 118.785 220.269 120.902Z" fill="#F09959"/>
<path d="M215.885 127.135C215.885 127.135 213.755 130.592 211.128 130.592C208.501 130.592 206.371 127.135 206.371 127.135H215.885Z" fill="white"/>
<path d="M204.835 111.168C209.256 108.067 211.243 108.585 214.559 113.677C217.873 118.771 221.851 118.859 221.851 118.859L222.368 113.578C222.368 113.578 217.431 104.007 210.802 105.263C204.174 106.518 200.404 112.497 200.404 112.497C200.404 112.497 200.082 123.703 201.007 124.085C201.932 124.466 202.038 120.468 202.701 119.655C203.364 118.844 202.038 115.006 202.923 113.235C203.804 111.463 204.835 111.168 204.835 111.168Z" fill="#2E2D3D"/>
<path d="M219.052 116.924C220.595 118.616 220.01 125.338 220.82 125.265C221.63 125.191 221.925 118.844 221.705 118.18C221.483 117.515 219.052 116.924 219.052 116.924Z" fill="#2E2D3D"/>
<path d="M234.981 180.867H185.722C183.989 180.867 182.573 179.447 182.573 177.712C182.573 175.976 183.991 174.557 185.722 174.557H234.981C236.712 174.557 238.13 175.977 238.13 177.712C238.13 179.447 236.714 180.867 234.981 180.867Z" fill="#99BBEB"/>
<path d="M228.851 190.561H191.853C190.12 190.561 188.704 189.14 188.704 187.406C188.704 185.671 190.122 184.25 191.853 184.25H228.851C230.582 184.25 232 185.671 232 187.406C232 189.142 230.582 190.561 228.851 190.561Z" fill="#99BBEB"/>
<path d="M255.351 225.427H165.352C164.346 225.427 163.525 224.603 163.525 223.597C163.525 222.589 164.348 221.767 165.352 221.767H255.351C256.357 221.767 257.179 222.591 257.179 223.597C257.179 224.603 256.357 225.427 255.351 225.427Z" fill="#99BBEB"/>
<path d="M255.351 233.937H165.352C164.346 233.937 163.525 233.113 163.525 232.105C163.525 231.097 164.348 230.275 165.352 230.275H255.351C256.357 230.275 257.179 231.099 257.179 232.105C257.179 233.113 256.357 233.937 255.351 233.937Z" fill="#99BBEB"/>
<path d="M255.351 242.447H165.352C164.346 242.447 163.525 241.622 163.525 240.615C163.525 239.607 164.348 238.785 165.352 238.785H255.351C256.357 238.785 257.179 239.609 257.179 240.615C257.179 241.621 256.357 242.447 255.351 242.447Z" fill="#99BBEB"/>
<path d="M242.764 159.388H177.94C176.337 159.388 175.033 158.081 175.033 156.475V96.6098C175.033 95.0037 176.337 93.6968 177.94 93.6968H242.764C244.367 93.6968 245.672 95.0037 245.672 96.6098V156.475C245.672 158.081 244.367 159.388 242.764 159.388ZM177.94 95.6443C177.409 95.6443 176.977 96.0775 176.977 96.6098V156.475C176.977 157.007 177.409 157.44 177.94 157.44H242.764C243.296 157.44 243.728 157.007 243.728 156.475V96.6098C243.728 96.0775 243.296 95.6443 242.764 95.6443H177.94Z" fill="#99BBEB"/>
<path d="M179.486 198.793L181.362 202.604L185.559 203.215L182.523 206.18L183.24 210.368L179.486 208.392L175.733 210.368L176.449 206.18L173.414 203.215L177.609 202.604L179.486 198.793Z" fill="#99BBEB"/>
<path d="M194.857 198.793L196.735 202.604L200.932 203.215L197.894 206.18L198.611 210.368L194.857 208.392L191.104 210.368L191.822 206.18L188.785 203.215L192.981 202.604L194.857 198.793Z" fill="#99BBEB"/>
<path d="M210.23 198.793L212.106 202.604L216.303 203.215L213.266 206.18L213.984 210.368L210.23 208.392L206.477 210.368L207.193 206.18L204.156 203.215L208.353 202.604L210.23 198.793Z" fill="#99BBEB"/>
<path d="M225.601 198.793L227.479 202.604L231.674 203.215L228.639 206.18L229.355 210.368L225.601 208.392L221.848 210.368L222.564 206.18L219.529 203.215L223.726 202.604L225.601 198.793Z" fill="#99BBEB"/>
<path d="M241.218 198.793L243.094 202.604L247.291 203.215L244.253 206.18L244.971 210.368L241.218 208.392L237.465 210.368L238.181 206.18L235.144 203.215L239.34 202.604L241.218 198.793Z" fill="#99BBEB"/>
<path d="M399.587 271.528H251.331C250.492 271.528 249.812 270.847 249.812 270.007V267.402C249.812 266.561 250.492 265.88 251.331 265.88H399.587C400.426 265.88 401.106 266.561 401.106 267.402V270.007C401.106 270.846 400.426 271.528 399.587 271.528Z" fill="#2E5B9A"/>
<path d="M437.622 190.167C439.628 197.254 434.728 204.558 429.331 206.092C423.933 207.627 420.082 202.81 418.075 195.723C416.069 188.636 418.816 181.647 424.215 180.112C429.613 178.579 435.616 183.08 437.622 190.167Z" fill="#F09959"/>
<path d="M407.358 327.505C407.358 327.505 421.192 349.035 423.061 349.971C424.929 350.907 429.601 351.142 427.849 354.651C426.098 358.161 425.397 371.97 423.762 372.671C422.128 373.374 408.115 375.011 410.216 372.671C412.317 370.331 413.61 371.5 414.671 367.289C415.732 363.077 417.221 355.119 415.237 353.482C413.251 351.845 401.108 337.1 401.108 337.1L407.358 327.505Z" fill="#F09959"/>
<path d="M337.729 336.751C337.729 336.751 320.913 364.523 317.798 367.019C314.684 369.516 304.408 373.26 312.816 373.884C321.224 374.508 325.272 371.076 330.566 369.516C335.861 367.955 342.4 367.019 339.909 362.963C337.418 358.906 338.453 350.05 343.824 344.433C349.195 338.818 337.729 336.751 337.729 336.751Z" fill="#F09959"/>
<path d="M423.548 272.35C423.548 272.35 381.919 271.26 365.414 284.832C355.76 299.498 332.406 342.772 330.59 347.54C331.836 348.789 338.843 351.041 341.957 350.729C351.144 339.752 363.287 330.264 368.116 321.654C374.068 311.044 375.901 305.739 385.555 304.803C395.209 303.867 417.008 300.747 423.548 300.747C430.088 300.747 423.548 272.35 423.548 272.35Z" fill="#6791C9"/>
<path d="M459.85 373.96H457.668L442.019 308.542H446.82L459.85 373.96Z" fill="#2E5B9A"/>
<path d="M394.482 373.96H396.664L414.62 306.229H409.818L394.482 373.96Z" fill="#2E5B9A"/>
<path d="M447.263 269.494L423.061 273.679C423.061 273.679 390.897 273.975 376.196 276.719C362.82 279.216 360.849 294.443 376.196 315.413C384.914 327.324 392.285 336.826 407.358 347.54C411.192 344.719 412.659 343.653 413.718 336.865C412.626 335.365 409.803 325.985 408.926 324.15C400.589 306.686 389.461 300.337 389.307 298.617C391.175 295.576 438.8 314.475 448.269 303.357C457.309 292.744 447.263 269.494 447.263 269.494Z" fill="#75A1DE"/>
<path d="M448.269 214.589C441.894 213.693 435.402 214.907 429.331 219.312C424.026 224.731 418.021 233.668 418.389 248.409C418.857 267.132 415.499 268.334 419.001 273.481C433.612 279.528 458.602 305.504 452.719 277.655C448.458 257.49 462.065 242.46 451.086 220.092C450.194 218.273 449.077 216.507 448.269 214.589Z" fill="#F37168"/>
<path d="M418.386 255.454C418.102 265.214 416.726 268.09 417.778 271.15C423.735 271.759 434.631 274.147 437.353 277.967C440.467 282.336 443.581 282.96 442.129 279.735C440.676 276.51 436.835 271.934 442.752 256.227C448.668 240.52 451.471 229.911 445.659 218.989L418.386 255.454Z" fill="#D54A41"/>
<path d="M448.269 214.589C444.343 205.279 443.379 194.817 443.379 194.817L433.103 197.858C433.103 197.858 438.941 210.964 433.335 215.645C432.145 216.64 430.762 217.847 429.329 219.31C435.402 214.909 441.894 213.693 448.269 214.589Z" fill="#F09959"/>
<path d="M443.689 197.298C443.081 196.755 442.319 196.078 441.519 195.369L433.136 197.851C433.13 197.865 433.125 197.882 433.118 197.897C433.321 198.361 435.455 203.352 435.735 208.154C438.234 206.636 440.969 204.16 444.096 199.835C443.927 198.875 443.794 198.02 443.689 197.298Z" fill="#E38540"/>
<path d="M441.044 217.519C430.46 221.228 431.634 232.4 421.894 248.877C416.853 257.405 412.17 257.279 412.17 257.279C412.17 257.279 400.348 257.374 386.048 255.621C377.094 254.524 376.524 257.196 382.753 259.426C395.314 263.925 408.347 268.769 418.859 267.6C429.368 266.429 447.344 239.56 448.271 232.567C449.551 222.891 446.375 215.65 441.044 217.519Z" fill="#F09959"/>
<path d="M435.593 311.268C434.935 311.268 434.261 311.259 433.57 311.242C424.944 311.029 419.073 309.833 414.354 308.873C408.846 307.751 405.81 307.132 402.279 308.823C400.923 309.473 399.298 308.896 398.651 307.538C398.003 306.18 398.578 304.552 399.934 303.904C405.109 301.426 409.443 302.309 415.439 303.529C419.947 304.447 425.558 305.591 433.704 305.792C442.821 306.02 448.381 304.665 451.198 301.534C453.708 298.744 454.443 294.058 453.51 286.783C453.191 284.294 452.871 282.224 452.589 280.396C451.794 275.241 451.268 271.837 451.918 266.574C452.523 261.686 454.138 255.175 457.879 242.552C458.306 241.109 459.821 240.287 461.261 240.715C462.701 241.142 463.521 242.66 463.094 244.103C456.124 267.628 456.476 269.92 457.965 279.562C458.253 281.422 458.577 283.529 458.905 286.088C460.055 295.058 458.89 301.126 455.238 305.185C451.479 309.364 445.373 311.268 435.593 311.268Z" fill="#2E5B9A"/>
<path d="M338.874 360.158C327.716 365.626 321.709 368.759 318.133 368.46C317.289 368.39 316.589 368.302 316.001 368.212C312.022 370.569 305.669 373.354 312.817 373.884C321.226 374.508 325.274 371.076 330.568 369.516C335.862 367.955 342.402 367.019 339.911 362.963C339.432 362.186 339.086 361.232 338.874 360.158Z" fill="#D54A41"/>
<path d="M424.277 350.428C424.004 359.281 422.789 368.053 417.387 369.708C415.955 370.147 414.649 370.211 413.495 370.057C412.645 371.111 411.608 371.122 410.216 372.671C408.114 375.011 422.126 373.374 423.762 372.671C425.396 371.968 426.098 358.161 427.849 354.651C429.287 351.768 426.393 351.096 424.277 350.428Z" fill="#D54A41"/>
<path d="M381.296 266.651H345.848C344.789 266.651 343.827 266.036 343.38 265.074L329.055 234.182C328.421 232.816 329.013 231.196 330.376 230.56C331.739 229.927 333.356 230.518 333.99 231.884L347.584 261.2H381.296C382.798 261.2 384.016 262.42 384.016 263.925C384.018 265.432 382.8 266.651 381.296 266.651Z" fill="#75A1DE"/>
<path d="M388.714 255.93C381.551 255.825 374.447 251.548 370.917 252.172C367.387 252.796 355.865 260.805 357.319 261.117C358.772 261.429 367.907 256.684 368.219 256.613C368.53 256.541 370.503 259.898 375.381 261.132C380.259 262.365 375.416 257.468 390.54 262.044C400.373 265.021 388.714 255.93 388.714 255.93Z" fill="#F09959"/>
<path d="M447.216 206.093L448.269 214.589C448.269 214.589 439 215.142 434.387 217.743C429.775 220.344 422.969 227.857 422.969 227.857L428.531 218.264L429.331 212.128L447.216 206.093Z" fill="#F2E5DE"/>
<path d="M443.27 216.495C436.385 215.202 433.2 221.383 428.737 231.473C424.273 241.563 416.655 253.817 415.14 255.396C413.625 256.974 389.603 255.396 389.603 255.396C389.603 255.396 388.876 262.365 389.603 263.197C390.331 264.028 394.482 263.925 394.482 263.925C394.482 263.925 396.143 265.254 397.7 266.306C399.257 267.358 412.441 269.335 418.565 269.023C424.689 268.711 430.295 268.191 431.126 267.255C431.956 266.319 448.67 240.524 449.707 231.265C450.744 222.009 446.783 217.155 443.27 216.495Z" fill="#F2E5DE"/>
<path d="M422.969 174.057C409.948 174.681 411.991 194.308 411.991 194.308C411.991 194.308 415.373 195.355 422.458 194.183C421.914 192.078 422.147 186.694 422.147 186.694C422.147 186.694 422.969 191.063 424.015 193.715C425.514 194.404 427.208 193.792 430.088 193.095C431.568 199.332 435.747 201.966 438.61 202.867C441.772 203.864 445.12 205.052 448.857 203.179C452.594 201.307 450.539 182.168 448.555 178.321C445.576 172.544 440.625 167.373 432.061 170.103C427.765 171.474 422.969 174.057 422.969 174.057Z" fill="#303C60"/>
<path d="M445.611 197.366L450.934 205.156C450.934 205.156 445.034 219.927 462.193 226.618C475.631 231.858 474.049 241.093 467.976 250.379C461.903 259.665 471.609 267.774 471.609 267.774C471.609 267.774 473.089 257.488 486.144 255.546C503.946 252.899 508.988 228.949 495.69 216.974C484.686 207.063 481.339 215.27 473.891 206.377C466.443 197.484 452.381 203.491 452.381 203.491L447.228 195.96L445.611 197.366Z" fill="#303C60"/>
<path d="M501.816 241.1C501.739 241.1 501.662 241.082 501.589 241.041C501.36 240.915 501.276 240.627 501.4 240.397C505.877 232.2 502.225 222.269 500.387 219.578C500.193 219.294 500.008 219.004 499.812 218.699C498.008 215.876 495.76 212.363 483.774 210.2C480.887 209.679 478.55 207.961 476.075 206.14C470.964 202.381 465.17 198.119 452.581 203.923C452.343 204.033 452.063 203.928 451.953 203.69C451.843 203.451 451.947 203.17 452.186 203.06C465.28 197.021 471.312 201.458 476.635 205.373C479.019 207.126 481.27 208.783 483.943 209.264C496.337 211.5 498.706 215.208 500.611 218.185C500.803 218.484 500.983 218.767 501.169 219.04C503.095 221.86 506.921 232.264 502.232 240.851C502.146 241.012 501.985 241.1 501.816 241.1Z" fill="#303C60"/>
<path d="M442.768 205.349C441.916 205.349 440.995 205.276 440.004 205.127C435.448 204.442 429.337 201.849 428.859 187.284C428.85 187.021 429.055 186.803 429.317 186.794C429.582 186.788 429.797 186.99 429.806 187.252C430.004 193.257 431.192 197.699 433.339 200.456C434.97 202.55 437.133 203.736 440.147 204.189C444.362 204.822 447.157 204.042 448.45 201.871C448.584 201.647 448.875 201.573 449.099 201.707C449.322 201.841 449.396 202.133 449.262 202.357C448.075 204.347 445.895 205.349 442.768 205.349Z" fill="#303C60"/>
<path d="M265.684 373.96H269.182L282.791 269.726H275.096L265.684 373.96Z" fill="#2E5B9A"/>
<path d="M384.39 373.96H380.893L367.284 269.726H374.98L384.39 373.96Z" fill="#2E5B9A"/>
<path d="M521.577 285.976C527.63 291.514 524.998 297.05 520.524 307.335C516.051 317.617 515.261 355.588 515.261 355.588L518.945 355.061C518.945 355.061 518.419 316.037 523.419 305.49C528.418 294.943 530.524 289.669 534.998 293.096C539.471 296.523 521.577 285.976 521.577 285.976Z" fill="#74B570"/>
<path d="M518.253 278.806C518.988 275.524 523.353 271.974 529.191 268.962C528.323 273.803 525.54 281.716 528.42 283.338C532.303 285.528 528.799 274.478 530.298 268.406C535.778 265.724 542.371 263.533 548.444 262.442C548.435 262.464 548.429 262.486 548.42 262.509C545 271.209 540.525 274.638 542.368 275.956C543.754 276.947 548.268 266.897 554.227 261.745C558.7 261.506 562.485 262.114 564.725 263.891C568.186 266.637 570.509 269.071 567.028 277.432C565.039 278.856 562.463 279.877 559.472 280.176C551.578 280.967 547.893 281.231 553.419 283.867C556.125 285.157 560.661 283.794 564.339 282.964C563.146 285.167 561.679 287.659 559.897 290.499C558.766 292.3 557.521 293.863 556.198 295.214C553.654 295.703 551.435 295.708 550.261 295.203C546.577 293.621 537.103 288.612 534.736 290.721C532.419 292.786 552.282 294.093 550.904 299.341C541.276 304.899 530.259 302.254 528.312 297.151C525.696 290.297 516.04 288.684 518.253 278.806Z" fill="#9CD499"/>
<path d="M538.156 316.299C527.63 308.388 516.841 315.773 511.316 324.209C505.789 332.647 509.737 351.632 509.737 351.632C509.737 351.632 511.841 351.632 511.841 350.841C511.841 350.05 506.053 328.429 519.737 318.673C528.297 312.57 534.472 315.508 535.262 318.409C536.051 321.309 531.842 326.582 531.842 326.582L538.156 316.299Z" fill="#74B570"/>
<path d="M513.946 300.038C524.472 300.038 527.894 316.386 524.998 325.879C522.103 335.371 518.156 353.038 518.156 353.038L515.523 350.402C515.523 350.402 525.524 325.617 523.155 314.541C520.786 303.465 514.998 301.62 513.944 301.62C512.893 301.62 513.946 300.038 513.946 300.038Z" fill="#9CD499"/>
<path d="M522.774 325.953C523.514 324.971 524.43 324.157 525.546 323.62C525.399 324.405 525.218 325.161 524.998 325.879C523.679 330.204 522.142 336.226 520.86 341.5C520.742 340.824 520.563 339.784 520.286 338.177C520.22 337.797 520.169 337.386 520.134 336.951C521.164 333.438 522.138 329.611 522.774 325.953Z" fill="#74B570"/>
<path d="M525.652 326.032C545.65 317.593 535.115 306.015 552.745 313.662C553.987 314.2 555.5 315.558 557.015 317.432C555.445 317.878 553.544 318.199 551.428 317.882C546.165 317.091 548.008 321.309 556.691 322.364C558.329 322.562 559.657 322.838 560.759 323.225C564.896 331.188 566.761 341.663 558.006 345.305C556.281 346.023 554.148 346.432 551.776 346.586C549.074 344.435 552.435 331.984 548.27 333.702C544.271 335.352 549.523 344.376 548.803 346.648C544.855 346.577 540.486 345.931 536.31 344.894C534.657 343.965 533.395 342.72 533.007 341.085C531.691 335.547 540.375 332.12 540.638 327.373C540.88 323.01 537.455 336.973 528.381 339.027C520.18 335.187 516.304 329.976 525.652 326.032Z" fill="#9CD499"/>
<path d="M511.402 311.112C513.506 306.63 507.982 305.574 508.244 309.003C508.476 312.041 508.502 319.423 505.393 321.433C500.031 320.852 492.737 318.687 487.223 315.387C487.153 314.941 487.221 314.482 487.456 314.012C489.824 309.265 505.087 305.312 500.35 303.729C496.578 302.47 489.967 309.906 484.642 313.652C481.443 311.22 479.298 308.32 479.298 305.084C479.298 300.703 484.611 295.745 491.48 293.375C494.572 293.687 497.443 295.381 501.929 297.927C508.555 301.69 507.024 295.607 500.759 291.997C506.168 292.277 511.559 294.592 515.538 300.124C515.538 300.124 515.163 302.489 517.659 306.147C524.472 316.125 516.61 321.951 507.21 321.573C507.74 318.943 509.947 314.21 511.402 311.112Z" fill="#9CD499"/>
<path d="M537.522 315.851C542.668 319.836 548.385 324.495 555.403 327.66C562.421 330.824 561.017 341.136 561.017 341.136C561.017 341.136 562.071 332.23 556.222 329.181C550.372 326.132 546.515 322.502 542.069 321.799C537.625 321.096 535.168 320.393 535.168 320.393C535.168 320.393 536.571 317.581 535.752 316.525C534.933 315.47 537.522 315.851 537.522 315.851Z" fill="#74B570"/>
<path d="M562.888 269.061C544.056 274.1 530.255 286.172 527.683 289.102C525.109 292.031 525.109 292.852 525.109 292.852L527.097 296.602L528.033 296.134C528.033 296.134 526.513 292.969 530.49 288.867C537.348 281.793 545.694 276.209 551.426 273.749C557.158 271.29 562.888 269.061 562.888 269.061Z" fill="#74B570"/>
<path d="M510.378 373.503H518.634C523.455 373.503 527.366 369.586 527.366 364.752V347.658H501.647V364.752C501.647 369.586 505.556 373.503 510.378 373.503Z" fill="#75A1DE"/>
<path d="M527.366 350.619H501.647V352.432H527.366V350.619Z" fill="white"/>
<path d="M527.366 353.927H501.647V354.993H527.366V353.927Z" fill="white"/>
<path d="M41.5942 350.955H48.0002C49.2221 350.955 50.2131 349.962 50.2131 348.737V343.403C50.2131 342.179 49.2221 341.186 48.0002 341.186H41.5942C40.3724 341.186 39.3813 342.179 39.3813 343.403V348.737C39.3832 349.962 40.3724 350.955 41.5942 350.955Z" fill="#75A1DE"/>
<path d="M21.9033 350.955H28.3093C29.5312 350.955 30.5222 349.962 30.5222 348.737V343.403C30.5222 342.179 29.5312 341.186 28.3093 341.186H21.9033C20.6815 341.186 19.6904 342.179 19.6904 343.403V348.737C19.6904 349.962 20.6815 350.955 21.9033 350.955Z" fill="#75A1DE"/>
<path d="M2.21289 350.955H8.6189C9.84075 350.955 10.8318 349.962 10.8318 348.737V343.403C10.8318 342.179 9.84075 341.186 8.6189 341.186H2.21289C0.991036 341.186 0 342.179 0 343.403V348.737C0 349.962 0.991036 350.955 2.21289 350.955Z" fill="#75A1DE"/>
<path d="M562.734 169.08V162.661C562.734 161.437 561.743 160.444 560.523 160.444H555.2C553.978 160.444 552.987 161.437 552.987 162.661V169.08C552.987 170.305 553.978 171.298 555.2 171.298H560.523C561.743 171.298 562.734 170.305 562.734 169.08Z" fill="#75A1DE"/>
<path d="M562.734 188.811V182.392C562.734 181.168 561.743 180.175 560.523 180.175H555.2C553.978 180.175 552.987 181.168 552.987 182.392V188.811C552.987 190.035 553.978 191.028 555.2 191.028H560.523C561.743 191.028 562.734 190.035 562.734 188.811Z" fill="#75A1DE"/>
<path d="M562.734 208.543V202.124C562.734 200.9 561.743 199.907 560.523 199.907H555.2C553.978 199.907 552.987 200.9 552.987 202.124V208.543C552.987 209.767 553.978 210.76 555.2 210.76H560.523C561.743 210.759 562.734 209.767 562.734 208.543Z" fill="#75A1DE"/>
</g>
<defs>
<clipPath id="clip0_177_1079">
<rect width="568.75" height="413" fill="white"/>
</clipPath>
</defs>
</svg>
