<svg width="36" height="37" viewBox="0 0 36 37" fill="none" xmlns="http://www.w3.org/2000/svg">
<path d="M27 12.5758C27 10.1964 26.0518 7.91456 24.364 6.23212C22.6761 4.54968 20.3869 3.60449 18 3.60449C15.6131 3.60449 13.3239 4.54968 11.636 6.23212C9.94821 7.91456 9 10.1964 9 12.5758C9 23.0423 4.5 26.0327 4.5 26.0327H31.5C31.5 26.0327 27 23.0423 27 12.5758Z" stroke="#505050" stroke-width="2" stroke-linecap="round" stroke-linejoin="round"/>
<path d="M20.595 32.0134C20.3313 32.4666 19.9528 32.8427 19.4973 33.1042C19.0419 33.3657 18.5256 33.5033 18 33.5033C17.4744 33.5033 16.9581 33.3657 16.5027 33.1042C16.0472 32.8427 15.6687 32.4666 15.405 32.0134" stroke="#505050" stroke-width="2" stroke-linecap="round" stroke-linejoin="round"/>
</svg>
