<svg width="22" height="28" viewBox="0 0 22 28" fill="none" xmlns="http://www.w3.org/2000/svg">
<path d="M8.12352 2.58595C8.29271 0.523979 8.85666 0.0275778 10.7741 0.00848549C11.1313 0.00848549 11.5072 -0.0106069 11.8644 0.00848549C13.0299 0.0657626 13.6879 0.676718 13.857 1.86044C13.8758 2.07046 13.9134 2.28048 13.951 2.58595C15.5677 2.58595 17.1468 2.58595 18.7446 2.58595C19.2334 2.58595 19.7034 2.54777 20.1921 2.60505C21.2072 2.70051 21.9028 3.38783 21.9592 4.457C22.0156 5.7171 22.166 7.01538 20.6809 7.66452C20.5493 7.7218 20.4929 8.08455 20.4741 8.31366C20.1545 13.354 19.8349 18.3944 19.5342 23.4348C19.4778 24.3131 19.4402 25.2104 19.365 26.0886C19.271 27.1005 18.6506 27.7879 17.6543 27.9215C17.0528 27.9979 16.4512 27.9788 15.8497 27.9788C12.3156 27.9788 8.80027 27.9788 5.26616 27.9788C3.29232 27.9788 2.72837 27.3869 2.59678 25.3631C2.25841 19.7118 1.90124 14.0605 1.50647 8.40912C1.48767 8.06546 1.2057 7.64543 0.923722 7.43541C-0.0537969 6.74809 -0.128991 5.58345 0.134187 3.9797C0.303373 3.00599 1.07411 2.58595 2.29601 2.56686C4.21345 2.56686 6.13089 2.58595 8.12352 2.58595ZM18.895 7.75998C13.5563 7.75998 8.3867 7.75998 3.19833 7.75998C3.17953 7.93181 3.12314 8.04637 3.14194 8.16092C3.49911 13.965 3.87508 19.7691 4.21345 25.5731C4.25104 26.2605 4.60822 26.3368 5.15337 26.3368C9.04465 26.3177 12.9359 26.3177 16.8272 26.3559C17.5979 26.3559 17.7671 26.0695 17.8047 25.344C17.9927 21.9838 18.2371 18.6235 18.4439 15.2633C18.5943 12.8004 18.7446 10.3184 18.895 7.75998ZM20.2861 6.00348C20.4741 4.2088 20.4741 4.2088 18.8386 4.2088C15.8497 4.2088 12.8607 4.2088 9.89058 4.2088C7.40918 4.2088 4.94659 4.2279 2.46519 4.2088C1.86364 4.2088 1.61926 4.38063 1.60047 5.04887C1.58167 5.83165 1.78845 6.09895 2.61558 6.09895C8.19872 6.06076 13.7631 6.07985 19.3462 6.07985C19.647 6.06076 19.9477 6.02258 20.2861 6.00348ZM12.2028 2.54777C12.1652 1.57406 11.9584 1.49769 10.4169 1.61224C9.77778 1.66952 9.68379 1.975 9.87178 2.54777C10.6425 2.54777 11.3944 2.54777 12.2028 2.54777Z" fill="#505050"/>
<path d="M6.90161 16.9243C6.90161 15.1869 6.90161 13.4304 6.90161 11.693C6.90161 11.1011 7.0332 10.6238 7.70994 10.6238C8.38669 10.6238 8.49948 11.1393 8.49948 11.712C8.49948 15.2632 8.49948 18.7953 8.49948 22.3465C8.49948 22.9383 8.34909 23.4347 7.69115 23.4347C7.0332 23.4347 6.90161 22.9193 6.90161 22.3274C6.90161 20.5327 6.90161 18.738 6.90161 16.9243Z" fill="#505050"/>
<path d="M11.7893 17.0388C11.7893 18.8144 11.7893 20.5899 11.7893 22.3655C11.7893 22.9574 11.6389 23.4538 10.9621 23.4347C10.3606 23.4156 10.1914 22.9383 10.1914 22.4037C10.1914 18.8525 10.1914 15.3014 10.1914 11.7502C10.1914 11.1774 10.323 10.6619 10.9997 10.6428C11.6953 10.6237 11.7893 11.1583 11.7893 11.7311C11.7893 13.4876 11.7893 15.2632 11.7893 17.0388Z" fill="#505050"/>
<path d="M13.5375 16.9817C13.5375 15.2634 13.5375 13.545 13.5375 11.8458C13.5375 11.273 13.5375 10.6621 14.3082 10.643C15.0601 10.6239 15.1353 11.254 15.1353 11.8267C15.1541 15.3206 15.1353 18.8145 15.1353 22.3084C15.1353 22.9003 15.0226 23.4731 14.2894 23.4731C13.6127 23.454 13.5187 22.9003 13.5187 22.3466C13.5375 20.5328 13.5375 18.7573 13.5375 16.9817Z" fill="#505050"/>
</svg>
