<svg width="36" height="37" viewBox="0 0 36 37" fill="none" xmlns="http://www.w3.org/2000/svg">
<path d="M18 33.7363C26.2843 33.7363 33 27.042 33 18.7842C33 10.5263 26.2843 3.83203 18 3.83203C9.71573 3.83203 3 10.5263 3 18.7842C3 27.042 9.71573 33.7363 18 33.7363Z" stroke="#505050" stroke-width="2" stroke-linecap="round" stroke-linejoin="round"/>
<path d="M13.635 14.2984C13.9877 13.2991 14.6837 12.4564 15.5999 11.9197C16.5161 11.383 17.5933 11.1868 18.6408 11.3658C19.6882 11.5449 20.6382 12.0878 21.3226 12.8982C22.007 13.7086 22.3816 14.7343 22.38 15.7936C22.38 18.784 17.88 20.2792 17.88 20.2792" stroke="#505050" stroke-width="2" stroke-linecap="round" stroke-linejoin="round"/>
<path d="M18 24.7649V25.5125" stroke="#505050" stroke-width="2" stroke-linecap="round" stroke-linejoin="round"/>
</svg>
