<svg width="158" height="24" viewBox="0 0 158 24" fill="none" xmlns="http://www.w3.org/2000/svg">
<g clip-path="url(#clip0_177_1195)">
<path d="M7.72051 13.1193C5.26534 12.4181 3.48037 11.5588 2.36227 10.5383C1.24417 9.51769 0.686783 8.25679 0.686783 6.75884C0.686783 5.06337 1.37025 3.6609 2.73718 2.55144C4.10411 1.44197 5.87913 0.888885 8.06556 0.888885C9.55525 0.888885 10.8857 1.17531 12.0535 1.74814C13.2214 2.32098 14.1272 3.10782 14.7675 4.11522C15.4078 5.12263 15.7297 6.22222 15.7297 7.41399H12.8531C12.8531 6.10699 12.4351 5.07983 11.6023 4.33251C10.7662 3.58518 9.59174 3.21317 8.06888 3.21317C6.65881 3.21317 5.55731 3.52263 4.76767 4.13827C3.97804 4.7572 3.58322 5.61316 3.58322 6.70946C3.58322 7.58847 3.95813 8.33251 4.70795 8.93827C5.45777 9.54732 6.73512 10.1004 8.54 10.6041C10.3449 11.1078 11.7549 11.6642 12.7735 12.27C13.7921 12.8757 14.5485 13.5835 15.0396 14.3934C15.5306 15.2033 15.7761 16.1547 15.7761 17.2477C15.7761 18.9926 15.0893 20.3918 13.7191 21.442C12.3488 22.4922 10.5141 23.0156 8.21818 23.0156C6.72849 23.0156 5.33501 22.7325 4.04439 22.1663C2.75377 21.6 1.75511 20.823 1.05506 19.8354C0.355004 18.8477 0 17.7284 0 16.4774H2.87653C2.87653 17.7778 3.36093 18.8082 4.32972 19.5621C5.29852 20.316 6.59246 20.6946 8.21154 20.6946C9.72114 20.6946 10.879 20.3885 11.6853 19.7761C12.4915 19.1638 12.8929 18.3309 12.8929 17.2774C12.8929 16.2239 12.5214 15.4074 11.7749 14.828C11.0317 14.2518 9.67801 13.6823 7.72051 13.1193Z" fill="#E8E8E3"/>
<path d="M28.9611 22.7193C28.8018 22.4033 28.6724 21.8403 28.5729 21.0337C27.2922 22.3539 25.7594 23.0156 23.9811 23.0156C22.3919 23.0156 21.088 22.5712 20.0694 21.6757C19.0508 20.7835 18.5432 19.651 18.5432 18.2815C18.5432 16.6156 19.1802 15.3218 20.4576 14.4C21.7349 13.4782 23.5299 13.0173 25.8457 13.0173H28.5298V11.7597C28.5298 10.8016 28.2411 10.0411 27.6638 9.47489C27.0865 8.90864 26.2372 8.62551 25.1158 8.62551C24.1304 8.62551 23.3076 8.87243 22.6407 9.36625C21.9738 9.86008 21.642 10.456 21.642 11.1572H18.8684C18.8684 10.3572 19.1537 9.58683 19.7243 8.8428C20.295 8.09876 21.0714 7.50946 22.0501 7.07489C23.0289 6.64033 24.1038 6.42304 25.2783 6.42304C27.1363 6.42304 28.5928 6.88395 29.6446 7.80576C30.6963 8.72757 31.2437 9.99835 31.2835 11.6148V18.9794C31.2835 20.4477 31.4727 21.6165 31.8509 22.4856V22.7226H28.9611V22.7193ZM24.3858 20.6321C25.2518 20.6321 26.0713 20.4115 26.8443 19.9671C27.6207 19.5226 28.1814 18.9465 28.5298 18.2354V14.9531H26.3699C22.9924 14.9531 21.3003 15.9342 21.3003 17.8963C21.3003 18.7556 21.5889 19.4239 22.1662 19.9078C22.7402 20.3918 23.4834 20.6321 24.3858 20.6321Z" fill="#E8E8E3"/>
<path d="M38.606 22.7193H35.8489V0H38.606V22.7193Z" fill="#E8E8E3"/>
<path d="M52.9752 21.1358C51.9035 22.3868 50.3276 23.0156 48.2506 23.0156C46.532 23.0156 45.2215 22.5218 44.3224 21.5276C43.4232 20.5333 42.9687 19.0683 42.9587 17.1259V6.71605H45.7158V17.0535C45.7158 19.4798 46.7112 20.6914 48.6985 20.6914C50.8053 20.6914 52.2054 19.9111 52.9022 18.3539V6.71605H55.6593V22.7193H53.0349L52.9752 21.1358Z" fill="#E8E8E3"/>
<path d="M59.1763 14.5844C59.1763 12.1284 59.7635 10.1531 60.9347 8.66173C62.1059 7.17037 63.642 6.41975 65.5398 6.41975C67.4276 6.41975 68.9239 7.06173 70.0255 8.34239V0H72.7825V22.7193H70.2477L70.115 21.0041C69.0135 22.344 67.4774 23.0156 65.5099 23.0156C63.642 23.0156 62.1192 22.2551 60.9413 20.7374C59.7635 19.2198 59.1763 17.2379 59.1763 14.7918V14.5844ZM61.9367 14.8938C61.9367 16.7078 62.3149 18.1267 63.068 19.1539C63.8245 20.1811 64.8663 20.6914 66.2 20.6914C67.9485 20.6914 69.2259 19.9111 70.0321 18.3539V11.0058C69.206 9.49794 67.9419 8.74403 66.2299 8.74403C64.8796 8.74403 63.8245 9.26091 63.068 10.2979C62.3116 11.335 61.9367 12.8626 61.9367 14.8938Z" fill="#E8E8E3"/>
<path d="M81.3888 15.1309V22.7193H76.9164V1.18189H85.3834C87.0124 1.18189 88.4457 1.47819 89.6833 2.07078C90.9208 2.66337 91.873 3.50288 92.5366 4.59259C93.2034 5.6823 93.5352 6.92346 93.5352 8.31276C93.5352 10.423 92.8086 12.0856 91.3521 13.3037C89.8956 14.5218 87.8817 15.1309 85.3071 15.1309H81.3888ZM81.3888 11.5358H85.3834C86.5645 11.5358 87.467 11.2593 88.0907 10.7062C88.7111 10.1531 89.023 9.36625 89.023 8.33909C89.023 7.2823 88.7111 6.42963 88.0841 5.78107C87.457 5.12922 86.5944 4.79671 85.4896 4.77695H81.3888V11.5358Z" fill="#E8E8E3"/>
<path d="M99.65 22.7193H95.3269V0H99.65V22.7193Z" fill="#E8E8E3"/>
<path d="M112.855 21.093C111.79 22.3737 110.32 23.0156 108.442 23.0156C106.713 23.0156 105.393 22.5218 104.484 21.5374C103.575 20.5531 103.11 19.1078 103.09 17.2049V6.71605H107.397V17.0667C107.397 18.7358 108.163 19.5687 109.693 19.5687C111.153 19.5687 112.158 19.065 112.705 18.0576V6.71605H117.029V22.7193H112.974L112.855 21.093Z" fill="#E8E8E3"/>
<path d="M129.016 18.2979C129.016 17.7745 128.754 17.363 128.233 17.0634C127.712 16.7638 126.872 16.4938 125.721 16.2568C121.886 15.4568 119.968 13.8403 119.968 11.4041C119.968 9.98518 120.562 8.8 121.75 7.84526C122.938 6.89382 124.49 6.41646 126.408 6.41646C128.455 6.41646 130.091 6.89382 131.318 7.85185C132.546 8.80987 133.16 10.051 133.16 11.5786H128.853C128.853 10.9663 128.654 10.4625 128.256 10.0642C127.858 9.66584 127.237 9.46502 126.391 9.46502C125.665 9.46502 125.104 9.62633 124.706 9.95226C124.308 10.2782 124.109 10.693 124.109 11.1934C124.109 11.6675 124.334 12.0494 124.786 12.3391C125.237 12.6288 126 12.8823 127.075 13.093C128.146 13.3037 129.052 13.544 129.789 13.8107C132.065 14.6403 133.203 16.0724 133.203 18.1136C133.203 19.572 132.572 20.7539 131.308 21.656C130.044 22.558 128.415 23.0091 126.418 23.0091C125.068 23.0091 123.867 22.7687 122.818 22.2914C121.77 21.814 120.947 21.1588 120.35 20.3226C119.752 19.4897 119.454 18.5909 119.454 17.623H123.538C123.578 18.3835 123.86 18.963 124.387 19.3679C124.915 19.7728 125.618 19.9737 126.504 19.9737C127.33 19.9737 127.954 19.8189 128.375 19.5062C128.803 19.2066 129.016 18.7984 129.016 18.2979Z" fill="#E8E8E3"/>
<path d="M141.033 24C140.807 23.9737 140.585 23.9539 140.359 23.9177C138.485 23.628 136.975 22.0905 136.76 20.2272C136.597 18.8082 137.008 17.5704 138.034 16.5531C139.022 15.5687 140.014 14.5877 141.003 13.6033C141.056 13.5506 141.106 13.4947 141.212 13.386C141.132 13.3366 141.049 13.3037 140.993 13.2444C139.938 12.1975 138.873 11.1638 137.841 10.0971C137.161 9.3926 136.806 8.52346 136.74 7.5391C136.653 6.26502 137.032 5.15556 137.914 4.23046C138.681 3.42716 139.626 2.97284 140.748 2.90041C140.814 2.89712 140.88 2.87408 140.947 2.86091C141.03 2.86091 141.112 2.86091 141.195 2.86091C141.242 2.87079 141.285 2.89054 141.331 2.89383C142.403 2.93663 143.319 3.34486 144.085 4.07243C144.712 4.66502 145.316 5.28066 145.927 5.89301C146.205 6.16955 146.215 6.54486 145.96 6.78848C145.691 7.04527 145.333 7.02552 145.041 6.73581C144.473 6.17284 143.906 5.60659 143.332 5.04692C142.138 3.87819 140.363 3.77613 139.092 4.79671C137.665 5.9391 137.549 8.08889 138.853 9.39918C139.852 10.4033 140.86 11.3975 141.866 12.3918C141.922 12.4477 141.982 12.4971 142.061 12.5696C142.114 12.5037 142.151 12.451 142.194 12.4082C144.921 9.70535 147.649 7.00247 150.376 4.29959C150.419 4.25679 150.465 4.2107 150.508 4.1679C151.182 3.50618 151.975 3.08148 152.917 2.93992C153.126 2.91029 153.339 2.88725 153.548 2.86091C153.591 2.86091 153.63 2.86091 153.674 2.86091C153.899 2.88725 154.125 2.90041 154.347 2.94321C156.109 3.27902 157.303 4.2963 157.801 5.99836C158.272 7.61482 157.877 9.07655 156.683 10.2979C156.65 10.3309 156.613 10.3671 156.58 10.4C153.833 13.1292 151.082 15.8617 148.335 18.591C148.305 18.6206 148.266 18.637 148.213 18.6733C148.349 18.8148 148.458 18.9333 148.574 19.0486C149.516 19.9835 150.455 20.9185 151.401 21.8469C152.728 23.1473 154.838 23.0519 156.039 21.6395C157.064 20.4346 156.978 18.6041 155.843 17.4584C155.263 16.8757 154.679 16.2996 154.095 15.7235C153.936 15.5654 153.843 15.3877 153.876 15.1539C153.946 14.6897 154.52 14.4395 154.855 14.7687C155.641 15.5325 156.424 16.3029 157.144 17.1292C157.691 17.7547 157.93 18.5383 157.967 19.3712C158.046 21.1786 157.29 22.5383 155.727 23.4535C155.187 23.7695 154.589 23.9375 153.959 23.9737C153.906 23.977 153.853 23.9967 153.803 24.0066C153.707 24.0066 153.607 24.0066 153.511 24.0066C153.451 23.9934 153.395 23.9737 153.335 23.9704C152.31 23.9243 151.414 23.5457 150.684 22.851C149.619 21.837 148.587 20.7868 147.542 19.7498C147.486 19.6938 147.449 19.6115 147.4 19.5325C147.29 19.6346 147.234 19.684 147.181 19.7366C146.195 20.7144 145.21 21.6922 144.225 22.67C143.544 23.3449 142.742 23.786 141.786 23.9276C141.577 23.9572 141.365 23.9802 141.156 24.0066C141.116 24 141.073 24 141.033 24ZM152.675 12.5432C152.698 12.5235 152.728 12.5037 152.751 12.4807C153.78 11.4601 154.818 10.4428 155.837 9.41235C156.603 8.63869 156.908 7.69712 156.703 6.63704C156.474 5.46832 155.77 4.65185 154.629 4.27325C153.491 3.89465 152.42 4.09548 151.54 4.91194C150.449 5.92593 149.41 7.00247 148.352 8.04939C148.315 8.0856 148.282 8.1284 148.259 8.15803C149.732 9.61976 151.195 11.0716 152.675 12.5432ZM142.035 14.3177C141.982 14.3671 141.932 14.4132 141.882 14.4626C140.893 15.4436 139.901 16.428 138.913 17.4091C138.385 17.9325 138.057 18.5514 137.984 19.2889C137.854 20.5695 138.335 21.5835 139.417 22.2749C140.688 23.0848 142.264 22.8807 143.335 21.8206C144.337 20.8296 145.336 19.8354 146.335 18.8444C146.381 18.7984 146.424 18.749 146.461 18.7062C144.981 17.2412 143.515 15.786 142.035 14.3177ZM151.729 13.4486C150.266 11.9967 148.796 10.5383 147.33 9.08313C145.887 10.5152 144.424 11.9704 142.974 13.4091C144.44 14.8642 145.91 16.3259 147.373 17.7745C148.82 16.3358 150.286 14.8807 151.729 13.4486Z" fill="#99E7C8"/>
<path d="M147.403 10.8708C147.811 10.8675 148.14 11.1934 148.143 11.5984C148.143 11.9967 147.801 12.3424 147.41 12.3358C146.992 12.3292 146.656 11.9967 146.656 11.5918C146.656 11.1934 146.988 10.8708 147.403 10.8708Z" fill="#99E7C8"/>
<path d="M148.475 13.3761C148.478 12.9613 148.793 12.6519 149.211 12.6551C149.616 12.6584 149.944 12.9877 149.941 13.3959C149.938 13.8041 149.613 14.1268 149.205 14.13C148.79 14.13 148.471 13.8008 148.475 13.3761Z" fill="#99E7C8"/>
<path d="M144.775 13.465C144.782 13.0568 145.107 12.7342 145.515 12.7375C145.923 12.7407 146.265 13.0897 146.255 13.4947C146.248 13.8864 145.9 14.2156 145.495 14.2123C145.09 14.2058 144.769 13.8733 144.775 13.465Z" fill="#99E7C8"/>
<path d="M147.313 15.9934C146.905 15.9967 146.57 15.6708 146.57 15.2691C146.57 14.8576 146.905 14.5284 147.323 14.5251C147.708 14.5251 148.047 14.8576 148.057 15.2461C148.067 15.6576 147.738 15.9901 147.313 15.9934Z" fill="#99E7C8"/>
</g>
<defs>
<clipPath id="clip0_177_1195">
<rect width="158" height="24" fill="white"/>
</clipPath>
</defs>
</svg>
