<svg width="97" height="97" viewBox="0 0 97 97" fill="none" xmlns="http://www.w3.org/2000/svg">
<path d="M3.67317 73.4016C4.02396 72.0351 4.3197 70.8353 4.6403 69.6426C5.16871 67.6766 5.65094 65.6955 6.26816 63.7579C6.84719 61.9401 6.65803 60.2765 5.67669 58.6652C4.476 56.6921 3.46713 54.6251 2.63144 52.472C1.30908 49.0659 0.496479 45.5489 0.160782 41.9078C-1.47774 24.1449 9.51856 6.83945 28.0583 1.50284C32.4872 0.228548 37.0058 -0.253857 41.5767 0.126569C50.1628 0.840423 57.7133 4.09666 64.159 9.80571C70.1971 15.1538 74.1855 21.7639 76.0621 29.6207C76.912 33.1793 77.2308 36.7982 77.0025 40.4384C76.3525 50.7827 72.42 59.6548 64.8242 66.7969C59.6173 71.6928 53.4514 74.8001 46.4586 76.2703C44.1691 76.7519 41.8512 76.9833 39.5084 77.0569C32.4534 77.2795 25.8389 75.764 19.7289 72.185C19.3719 71.9757 19.0229 71.7531 18.6712 71.535C16.9678 70.4797 15.173 70.2358 13.2317 70.8016C10.396 71.6272 7.54168 72.388 4.69358 73.1728C4.41383 73.2491 4.12876 73.2996 3.67317 73.4016ZM29.298 29.4451C28.8353 29.4451 28.5147 29.4451 28.1941 29.4451C25.323 29.4451 22.4509 29.4327 19.5797 29.4549C18.9341 29.4602 18.2769 29.5276 17.6472 29.6659C16.7778 29.8575 16.181 30.4143 15.9377 31.2896C15.8435 31.6283 15.7583 31.9822 15.7538 32.3307C15.7076 35.8467 15.6721 39.3637 15.6526 42.8806C15.6481 43.6477 15.697 44.4174 15.768 45.1818C15.903 46.6414 16.5629 47.3766 17.9909 47.6453C18.5389 47.7481 19.1055 47.7925 19.6641 47.7951C22.5353 47.8093 25.4064 47.8004 28.2785 47.804C28.5929 47.804 28.9064 47.8279 29.3051 47.8439C29.3051 48.2846 29.3051 48.6349 29.3051 48.9852C29.3051 51.9115 29.2998 54.8379 29.3114 57.7651C29.3131 58.2342 29.346 58.7131 29.4428 59.1716C29.6781 60.2791 30.3486 61.0249 31.4685 61.2768C32.0111 61.3982 32.5795 61.4506 33.1364 61.4532C36.7775 61.4683 40.4187 61.4665 44.0598 61.4594C46.5616 61.455 47.6219 60.4405 47.6921 57.9239C47.7481 55.9153 47.7481 53.905 47.7481 51.8956C47.7481 51.0691 47.6344 50.2408 47.6566 49.4161C47.6868 48.2899 48.1983 47.8288 49.3253 47.796C49.5322 47.7898 49.74 47.7969 49.947 47.7969C52.4922 47.7987 55.0384 47.8129 57.5836 47.7934C58.1707 47.7889 58.7683 47.7215 59.3403 47.5903C60.279 47.3748 60.9051 46.7789 61.1333 45.8256C61.2221 45.4549 61.3065 45.0709 61.3074 44.6923C61.3198 40.6734 61.3198 36.6537 61.3074 32.6348C61.3065 32.2562 61.2141 31.8749 61.1395 31.4998C60.9308 30.4525 60.2639 29.8353 59.239 29.6464C58.5738 29.524 57.89 29.4602 57.2133 29.4549C54.4904 29.4336 51.7667 29.446 49.0429 29.446C48.7214 29.446 48.3999 29.446 47.9719 29.446C47.8973 28.9698 47.7791 28.5468 47.7729 28.1229C47.7481 26.3494 47.772 24.5758 47.7498 22.8023C47.733 21.4437 47.6992 20.0834 47.6299 18.7267C47.5402 16.9664 46.6788 16.0814 45.1362 15.9289C44.6664 15.8828 44.1948 15.8207 43.7232 15.8198C40.2597 15.8109 36.7971 15.8074 33.3335 15.8216C32.7447 15.8242 32.1497 15.8828 31.5698 15.983C30.3691 16.1905 29.6799 16.8857 29.4614 18.0731C29.3815 18.5076 29.3194 18.9519 29.3149 19.3926C29.2954 21.2841 29.2998 23.1756 29.2972 25.0671C29.2963 26.4806 29.298 27.8959 29.298 29.4451Z" fill="white"/>
<path d="M45.02 82.8075C46.988 82.271 48.8273 81.8241 50.6318 81.269C56.5678 79.4413 62.0509 76.7367 66.883 72.7887C72.4051 68.276 76.4059 62.6449 79.2105 56.1298C80.6749 52.7281 81.746 49.2014 82.5675 45.5958C82.5985 45.4593 82.6376 45.3245 82.6918 45.1187C82.9715 45.265 83.2096 45.3688 83.4271 45.5045C90.8347 50.1272 95.2609 56.7328 96.649 65.354C97.6356 71.4808 96.5353 77.2244 93.4483 82.5982C92.6712 83.9506 92.0576 85.3588 92.1943 86.9559C92.2592 87.7123 92.451 88.4634 92.6384 89.2038C93.0211 90.7149 93.4385 92.2171 93.8746 93.8417C93.5558 93.7947 93.3666 93.7822 93.1863 93.737C91.8693 93.4045 90.5265 93.1429 89.2423 92.711C86.9901 91.9528 84.88 92.1745 82.8392 93.3424C81.27 94.2398 79.6323 94.9856 77.9174 95.5664C66.2977 99.501 53.2277 95.1293 46.3291 84.9854C45.869 84.3062 45.4809 83.5772 45.02 82.8075Z" fill="white"/>
<path d="M41.7373 55.2572C39.5428 55.2572 37.454 55.2572 35.2658 55.2572C35.2658 54.8857 35.2658 54.5664 35.2658 54.2481C35.2658 51.8245 35.2907 49.4001 35.2534 46.9765C35.2383 45.9771 35.1361 44.9733 34.9896 43.9837C34.8271 42.8858 34.0926 42.2394 33.026 42.1055C31.7969 41.9521 30.5527 41.8829 29.3138 41.8607C27.1833 41.8226 25.0519 41.8501 22.9205 41.8501C22.6008 41.8501 22.2811 41.8501 21.9019 41.8501C21.9019 39.6793 21.9019 37.5945 21.9019 35.3935C22.3717 35.382 22.8601 35.3616 23.3494 35.3598C26.1602 35.3518 28.9719 35.3527 31.7827 35.3394C32.1051 35.3376 32.4319 35.2897 32.7472 35.2197C34.2676 34.8836 34.9967 34.1236 35.1486 32.5602C35.2622 31.387 35.2782 30.2005 35.2862 29.0202C35.3004 27.0108 35.2747 25.0005 35.2658 22.9911C35.264 22.6683 35.2658 22.3464 35.2658 22.0458C35.9541 21.8391 39.8501 21.7771 41.6938 21.9349C41.708 22.2284 41.7346 22.5388 41.7355 22.8492C41.7391 25.5095 41.7249 28.1698 41.7462 30.8301C41.7515 31.536 41.8181 32.249 41.9353 32.9442C42.144 34.1759 42.8572 34.9785 44.1289 35.1718C44.7985 35.2738 45.4797 35.3438 46.1555 35.3491C48.8198 35.3687 51.4832 35.3571 54.1474 35.358C54.4671 35.358 54.7868 35.358 55.1669 35.358C55.1669 37.5209 55.1669 39.6057 55.1669 41.8031C54.8748 41.8182 54.5639 41.8483 54.254 41.8483C51.7087 41.8519 49.1626 41.8332 46.6173 41.8607C45.7639 41.8696 44.9033 41.9396 44.0623 42.078C42.8412 42.2784 42.1458 43.0783 41.9282 44.2692C41.8172 44.8766 41.7506 45.5 41.7462 46.1164C41.7266 48.8059 41.7373 51.4964 41.7373 54.186C41.7373 54.5088 41.7373 54.8325 41.7373 55.2572Z" fill="white"/>
</svg>
